<svg width="14" height="24" viewBox="0 0 14 24" fill="none" xmlns="http://www.w3.org/2000/svg">
<path d="M10.39 12.7836C10.5316 12.474 10.924 12.1872 11.2624 12.1488C11.6008 12.1104 11.9092 11.8008 11.9476 11.4624C11.9884 11.1264 12.274 10.7328 12.5824 10.59C12.7377 10.5109 12.8642 10.3849 12.9437 10.2297C13.0232 10.0746 13.0517 9.8983 13.0252 9.72601C12.9556 9.39241 13.1068 8.93041 13.3564 8.70121C13.4802 8.57769 13.5616 8.41811 13.589 8.24541C13.6164 8.0727 13.5883 7.89575 13.5088 7.74001C13.4265 7.57253 13.3837 7.38841 13.3837 7.20181C13.3837 7.0152 13.4265 6.83108 13.5088 6.66361C13.5885 6.50791 13.6167 6.33092 13.5893 6.15816C13.5619 5.98541 13.4803 5.82582 13.3564 5.70241C13.1068 5.47081 12.9568 5.01001 13.0252 4.67761C13.0521 4.50496 13.0237 4.32822 12.9442 4.17263C12.8647 4.01704 12.7381 3.89055 12.5824 3.81121C12.4175 3.72324 12.2747 3.59903 12.1648 3.44793C12.0548 3.29682 11.9806 3.12275 11.9476 2.93881C11.9202 2.76681 11.8392 2.60784 11.7162 2.48459C11.5932 2.36133 11.4343 2.28007 11.2624 2.25241C11.0784 2.22007 10.9042 2.14619 10.753 2.0364C10.6018 1.92661 10.4777 1.78379 10.39 1.61881C10.3108 1.46318 10.1842 1.33675 10.0285 1.2578C9.87273 1.17885 9.69591 1.15146 9.52358 1.17961C9.33865 1.20553 9.15023 1.18896 8.97266 1.13115C8.79509 1.07335 8.63302 0.975829 8.49878 0.846007C8.26718 0.594007 7.83518 0.526807 7.53878 0.693607C7.24238 0.860407 6.75638 0.860407 6.46118 0.693607C6.30591 0.612868 6.12889 0.583875 5.95597 0.61086C5.78305 0.637845 5.62328 0.719396 5.49998 0.843607C5.36585 0.973578 5.2038 1.07119 5.02619 1.12901C4.84859 1.18682 4.66013 1.20331 4.47518 1.17721C4.30308 1.14952 4.12663 1.17726 3.97132 1.25642C3.81601 1.33559 3.6899 1.46207 3.61118 1.61761C3.46838 1.92481 3.07598 2.21161 2.73758 2.25001C2.56532 2.27768 2.4062 2.35907 2.28293 2.48255C2.15967 2.60603 2.07856 2.76529 2.05118 2.93761C2.01863 3.12155 1.94453 3.29564 1.83452 3.44661C1.72452 3.59758 1.58151 3.72146 1.41638 3.80881C1.26125 3.88855 1.13526 4.01525 1.05639 4.17084C0.977519 4.32642 0.949799 4.50294 0.977184 4.67521C1.04318 5.00761 0.893184 5.46961 0.643584 5.70001C0.393984 5.93041 0.324385 6.36241 0.491185 6.66121C0.657985 6.95641 0.657985 7.44241 0.491185 7.73761C0.41158 7.89353 0.383448 8.07068 0.41083 8.2436C0.438213 8.41652 0.519699 8.5763 0.643584 8.70001C0.894384 8.92801 1.04318 9.39001 0.977184 9.72481C0.949773 9.89675 0.977505 10.073 1.0564 10.2282C1.1353 10.3834 1.26132 10.5096 1.41638 10.5888C1.72598 10.7316 2.01038 11.1252 2.04998 11.4612C2.09078 11.7996 2.39798 12.1092 2.73638 12.1476C3.07478 12.186 3.46718 12.474 3.60998 12.7824C3.68931 12.9374 3.81558 13.0633 3.97075 13.1421C4.12592 13.221 4.30206 13.2488 4.47398 13.2216C4.80758 13.1556 5.26958 13.3044 5.49878 13.5552C5.6224 13.6788 5.78197 13.7602 5.95463 13.7875C6.1273 13.8149 6.30419 13.7869 6.45998 13.7076C6.75518 13.5408 7.24118 13.5408 7.53758 13.7076C7.83398 13.8744 8.26598 13.8048 8.49758 13.5552C8.72918 13.3032 9.18878 13.1556 9.52238 13.2216C9.69471 13.2494 9.87139 13.222 10.0272 13.1433C10.183 13.0646 10.31 12.9387 10.39 12.7836V12.7836ZM6.99998 11.2788C5.9179 11.2788 4.88014 10.849 4.11499 10.0838C3.34984 9.31865 2.91998 8.28089 2.91998 7.19881C2.91998 6.11672 3.34984 5.07896 4.11499 4.31381C4.88014 3.54866 5.9179 3.11881 6.99998 3.11881C8.08207 3.11881 9.11983 3.54866 9.88498 4.31381C10.6501 5.07896 11.08 6.11672 11.08 7.19881C11.08 8.28089 10.6501 9.31865 9.88498 10.0838C9.11983 10.849 8.08207 11.2788 6.99998 11.2788ZM2.16998 13.6908L0.678384 22.1496L4.43198 21.5928L7.76918 23.4L9.25478 14.9748C8.05525 15.3255 6.79052 15.3921 5.56079 15.1692C4.33107 14.9464 3.17014 14.4402 2.16998 13.6908V13.6908ZM11.7532 13.7484C11.3784 14.0208 10.981 14.2605 10.5652 14.4648L9.66758 19.548L13.7104 17.3544L11.7532 13.7484V13.7484Z" fill="#BE3900"/>
</svg>
