<svg width="14" height="24" viewBox="0 0 14 24" fill="none" xmlns="http://www.w3.org/2000/svg">
<path d="M10.39 12.7836C10.5316 12.474 10.924 12.1872 11.2624 12.1488C11.6008 12.1104 11.9092 11.8008 11.9476 11.4624C11.9884 11.1264 12.274 10.7328 12.5824 10.59C12.7377 10.5109 12.8642 10.3848 12.9437 10.2297C13.0232 10.0746 13.0517 9.89829 13.0252 9.726C12.9556 9.3924 13.1068 8.9304 13.3564 8.7012C13.4802 8.57769 13.5616 8.41811 13.589 8.2454C13.6164 8.07269 13.5883 7.89575 13.5088 7.74C13.4265 7.57252 13.3837 7.3884 13.3837 7.2018C13.3837 7.0152 13.4265 6.83108 13.5088 6.6636C13.5885 6.5079 13.6167 6.33091 13.5893 6.15816C13.5619 5.9854 13.4803 5.82581 13.3564 5.7024C13.1068 5.4708 12.9568 5.01 13.0252 4.6776C13.0521 4.50495 13.0237 4.32822 12.9442 4.17263C12.8647 4.01704 12.7381 3.89054 12.5824 3.8112C12.4175 3.72323 12.2747 3.59903 12.1648 3.44792C12.0548 3.29681 11.9806 3.12274 11.9476 2.9388C11.9202 2.7668 11.8392 2.60784 11.7162 2.48458C11.5932 2.36132 11.4343 2.28006 11.2624 2.2524C11.0784 2.22006 10.9042 2.14619 10.753 2.03639C10.6018 1.9266 10.4777 1.78378 10.39 1.6188C10.3108 1.46317 10.1842 1.33674 10.0285 1.25779C9.87273 1.17884 9.69591 1.15146 9.52358 1.1796C9.33865 1.20552 9.15023 1.18895 8.97266 1.13114C8.79509 1.07334 8.63302 0.975821 8.49878 0.845999C8.26718 0.593999 7.83518 0.526799 7.53878 0.693599C7.24238 0.860399 6.75638 0.860399 6.46118 0.693599C6.30591 0.612861 6.12889 0.583867 5.95597 0.610853C5.78305 0.637838 5.62328 0.719388 5.49998 0.843599C5.36585 0.973571 5.2038 1.07119 5.02619 1.129C4.84859 1.18682 4.66013 1.2033 4.47518 1.1772C4.30308 1.14951 4.12663 1.17725 3.97132 1.25641C3.81601 1.33558 3.6899 1.46206 3.61118 1.6176C3.46838 1.9248 3.07598 2.2116 2.73758 2.25C2.56532 2.27768 2.4062 2.35906 2.28293 2.48254C2.15967 2.60602 2.07856 2.76529 2.05118 2.9376C2.01863 3.12154 1.94453 3.29563 1.83452 3.4466C1.72452 3.59758 1.58151 3.72145 1.41638 3.8088C1.26125 3.88854 1.13526 4.01525 1.05639 4.17083C0.977519 4.32641 0.949799 4.50293 0.977184 4.6752C1.04318 5.0076 0.893184 5.4696 0.643584 5.7C0.393984 5.9304 0.324385 6.3624 0.491185 6.6612C0.657985 6.9564 0.657985 7.4424 0.491185 7.7376C0.41158 7.89353 0.383448 8.07067 0.41083 8.24359C0.438213 8.41651 0.519699 8.5763 0.643584 8.7C0.894384 8.928 1.04318 9.39 0.977184 9.7248C0.949773 9.89674 0.977505 10.0729 1.0564 10.2282C1.1353 10.3834 1.26132 10.5096 1.41638 10.5888C1.72598 10.7316 2.01038 11.1252 2.04998 11.4612C2.09078 11.7996 2.39798 12.1092 2.73638 12.1476C3.07478 12.186 3.46718 12.474 3.60998 12.7824C3.68931 12.9373 3.81558 13.0632 3.97075 13.1421C4.12592 13.221 4.30206 13.2488 4.47398 13.2216C4.80758 13.1556 5.26958 13.3044 5.49878 13.5552C5.6224 13.6788 5.78197 13.7601 5.95463 13.7875C6.1273 13.8149 6.30419 13.7869 6.45998 13.7076C6.75518 13.5408 7.24118 13.5408 7.53758 13.7076C7.83398 13.8744 8.26598 13.8048 8.49758 13.5552C8.72918 13.3032 9.18878 13.1556 9.52238 13.2216C9.69471 13.2494 9.87139 13.2219 10.0272 13.1433C10.183 13.0646 10.31 12.9387 10.39 12.7836V12.7836ZM6.99998 11.2788C5.9179 11.2788 4.88014 10.8489 4.11499 10.0838C3.34984 9.31865 2.91998 8.28088 2.91998 7.1988C2.91998 6.11672 3.34984 5.07895 4.11499 4.3138C4.88014 3.54866 5.9179 3.1188 6.99998 3.1188C8.08207 3.1188 9.11983 3.54866 9.88498 4.3138C10.6501 5.07895 11.08 6.11672 11.08 7.1988C11.08 8.28088 10.6501 9.31865 9.88498 10.0838C9.11983 10.8489 8.08207 11.2788 6.99998 11.2788ZM2.16998 13.6908L0.678384 22.1496L4.43198 21.5928L7.76918 23.4L9.25478 14.9748C8.05525 15.3255 6.79052 15.3921 5.56079 15.1692C4.33107 14.9464 3.17014 14.4402 2.16998 13.6908V13.6908ZM11.7532 13.7484C11.3784 14.0208 10.981 14.2605 10.5652 14.4648L9.66758 19.548L13.7104 17.3544L11.7532 13.7484V13.7484Z" fill="#FEE501"/>
</svg>
