<svg width="24" height="24" viewBox="0 0 24 24" fill="none" xmlns="http://www.w3.org/2000/svg">
<path d="M15.39 12.7836C15.5316 12.474 15.924 12.1872 16.2624 12.1488C16.6008 12.1104 16.9092 11.8008 16.9476 11.4624C16.9884 11.1264 17.274 10.7328 17.5824 10.59C17.7377 10.5109 17.8642 10.3849 17.9437 10.2297C18.0232 10.0746 18.0517 9.8983 18.0252 9.72601C17.9556 9.39241 18.1068 8.93041 18.3564 8.70121C18.4802 8.57769 18.5616 8.41811 18.589 8.24541C18.6164 8.0727 18.5883 7.89575 18.5088 7.74001C18.4265 7.57253 18.3837 7.38841 18.3837 7.20181C18.3837 7.0152 18.4265 6.83108 18.5088 6.66361C18.5885 6.50791 18.6167 6.33092 18.5893 6.15816C18.5619 5.98541 18.4803 5.82582 18.3564 5.70241C18.1068 5.47081 17.9568 5.01001 18.0252 4.67761C18.0521 4.50496 18.0237 4.32822 17.9442 4.17263C17.8647 4.01704 17.7381 3.89055 17.5824 3.81121C17.4175 3.72324 17.2747 3.59903 17.1648 3.44793C17.0548 3.29682 16.9806 3.12275 16.9476 2.93881C16.9202 2.76681 16.8392 2.60784 16.7162 2.48459C16.5932 2.36133 16.4343 2.28007 16.2624 2.25241C16.0784 2.22007 15.9042 2.14619 15.753 2.0364C15.6018 1.92661 15.4777 1.78379 15.39 1.61881C15.3108 1.46318 15.1842 1.33675 15.0285 1.2578C14.8727 1.17885 14.6959 1.15146 14.5236 1.17961C14.3386 1.20553 14.1502 1.18896 13.9727 1.13115C13.7951 1.07335 13.633 0.975829 13.4988 0.846007C13.2672 0.594007 12.8352 0.526807 12.5388 0.693607C12.2424 0.860407 11.7564 0.860407 11.4612 0.693607C11.3059 0.612868 11.1289 0.583875 10.956 0.61086C10.783 0.637845 10.6233 0.719396 10.5 0.843607C10.3658 0.973578 10.2038 1.07119 10.0262 1.12901C9.84859 1.18682 9.66013 1.20331 9.47518 1.17721C9.30308 1.14952 9.12663 1.17726 8.97132 1.25642C8.81601 1.33559 8.6899 1.46207 8.61118 1.61761C8.46838 1.92481 8.07598 2.21161 7.73758 2.25001C7.56532 2.27768 7.4062 2.35907 7.28293 2.48255C7.15967 2.60603 7.07856 2.76529 7.05118 2.93761C7.01863 3.12155 6.94453 3.29564 6.83452 3.44661C6.72452 3.59758 6.58151 3.72146 6.41638 3.80881C6.26125 3.88855 6.13526 4.01525 6.05639 4.17084C5.97752 4.32642 5.9498 4.50294 5.97718 4.67521C6.04318 5.00761 5.89318 5.46961 5.64358 5.70001C5.39398 5.93041 5.32438 6.36241 5.49118 6.66121C5.65798 6.95641 5.65798 7.44241 5.49118 7.73761C5.41158 7.89353 5.38345 8.07068 5.41083 8.2436C5.43821 8.41652 5.5197 8.5763 5.64358 8.70001C5.89438 8.92801 6.04318 9.39001 5.97718 9.72481C5.94977 9.89675 5.97751 10.073 6.0564 10.2282C6.1353 10.3834 6.26132 10.5096 6.41638 10.5888C6.72598 10.7316 7.01038 11.1252 7.04998 11.4612C7.09078 11.7996 7.39798 12.1092 7.73638 12.1476C8.07478 12.186 8.46718 12.474 8.60998 12.7824C8.68931 12.9374 8.81558 13.0633 8.97075 13.1421C9.12592 13.221 9.30206 13.2488 9.47398 13.2216C9.80758 13.1556 10.2696 13.3044 10.4988 13.5552C10.6224 13.6788 10.782 13.7602 10.9546 13.7875C11.1273 13.8149 11.3042 13.7869 11.46 13.7076C11.7552 13.5408 12.2412 13.5408 12.5376 13.7076C12.834 13.8744 13.266 13.8048 13.4976 13.5552C13.7292 13.3032 14.1888 13.1556 14.5224 13.2216C14.6947 13.2494 14.8714 13.222 15.0272 13.1433C15.183 13.0646 15.31 12.9387 15.39 12.7836V12.7836ZM12 11.2788C10.9179 11.2788 9.88014 10.849 9.11499 10.0838C8.34984 9.31865 7.91998 8.28089 7.91998 7.19881C7.91998 6.11672 8.34984 5.07896 9.11499 4.31381C9.88014 3.54866 10.9179 3.11881 12 3.11881C13.0821 3.11881 14.1198 3.54866 14.885 4.31381C15.6501 5.07896 16.08 6.11672 16.08 7.19881C16.08 8.28089 15.6501 9.31865 14.885 10.0838C14.1198 10.849 13.0821 11.2788 12 11.2788ZM7.16998 13.6908L5.67838 22.1496L9.43198 21.5928L12.7692 23.4L14.2548 14.9748C13.0553 15.3255 11.7905 15.3921 10.5608 15.1692C9.33107 14.9464 8.17014 14.4402 7.16998 13.6908V13.6908ZM16.7532 13.7484C16.3784 14.0208 15.981 14.2605 15.5652 14.4648L14.6676 19.548L18.7104 17.3544L16.7532 13.7484V13.7484Z" fill="#8B939C"/>
</svg>
